<svg width="445" height="529" viewBox="0 0 445 529" fill="none" xmlns="http://www.w3.org/2000/svg">
<path d="M270.59 89.6042C201.978 64.9993 145.788 44.849 90.6013 93.6647C71.1699 110.853 61.562 135.374 58.4013 163.416C69.7828 146.288 86.2706 131.293 109.335 120.132C71.1283 177.363 65.0431 258.321 86.6902 312.953C108.337 367.586 151.681 435.733 183.879 468.609C173.117 457.497 68.2067 221.394 140.839 155.601C197.616 104.17 257.929 140.57 294.633 162.721C310.572 172.341 322.06 179.273 326.871 175.159C324.409 177.264 321.089 179.863 317.118 182.971C295.458 199.923 254.441 232.025 227.741 281.873C185.761 360.25 198.931 438.824 208.648 496.798C210.574 508.286 212.364 518.965 213.562 528.674C208.534 523.54 202.042 517.3 194.528 510.079C153.927 471.056 83.4938 403.363 53.0427 326.511C42.2764 299.339 34.0964 262.73 37.2882 226.848C4.77449 143.94 -18.6428 56.4359 20.428 21.8753C73.1355 -24.7478 148.232 13.5064 231.908 56.1309C299.497 90.5613 372.685 127.843 444.193 125.547C376.849 127.709 320.441 107.481 270.59 89.6042Z" fill="black"/>
</svg>
