<svg width="445" height="529" viewBox="0 0 445 529" fill="none" xmlns="http://www.w3.org/2000/svg">
<path d="M270.571 89.0546C201.959 64.4497 145.769 44.2994 90.5828 93.1151C71.1514 110.303 61.5435 134.825 58.3828 162.866C69.7643 145.738 86.2521 130.743 109.317 119.582C71.1098 176.814 65.0246 257.771 86.6718 312.404C108.319 367.037 151.663 435.183 183.86 468.06C173.098 456.947 68.1882 220.845 140.82 155.052C197.597 103.621 257.91 140.02 294.614 162.171C310.554 171.791 322.041 178.724 326.853 174.609C324.39 176.714 321.07 179.313 317.099 182.421C295.44 199.373 254.423 231.475 227.723 281.324C185.742 359.701 198.912 438.275 208.63 496.249C210.555 507.737 212.345 518.416 213.543 528.124C208.516 522.99 202.024 516.751 194.51 509.529C153.908 470.507 83.4753 402.813 53.0242 325.961C42.2579 298.79 34.0779 262.181 37.2697 226.299C4.756 143.391 -18.6613 55.8863 20.4095 21.3257C73.1171 -25.2974 148.213 12.9568 231.889 55.5814C299.479 90.0117 372.667 127.294 444.174 124.997C376.83 127.16 320.422 106.931 270.571 89.0546Z" fill="#CEC9CB"/>
</svg>
