<svg width="509" height="719" viewBox="0 0 509 719" fill="none" xmlns="http://www.w3.org/2000/svg">
<path d="M227.723 265.007C227.723 265.007 132.981 246.167 90.5828 283.672C71.1514 300.86 61.5435 325.381 58.3828 353.423C69.7643 336.295 86.2521 321.3 109.317 310.139C71.1098 367.37 65.0246 448.328 86.6718 502.96C108.319 557.593 151.663 625.74 183.86 658.616C173.098 647.504 68.1882 411.401 140.82 345.608C197.597 294.177 257.91 330.577 294.614 352.728C310.554 362.348 319.482 370.007 319.482 370.007C319.482 370.007 317.063 372.052 316.482 372.507C294.822 389.459 254.423 422.031 227.723 471.88C185.742 550.257 198.912 628.831 208.63 686.805C210.555 698.293 212.345 708.972 213.543 718.681C208.516 713.547 202.024 707.307 194.51 700.086C153.908 661.063 83.4753 593.369 53.0242 516.518C42.2579 489.346 34.0779 452.737 37.2697 416.855C4.756 333.947 -18.6613 246.443 20.4095 211.882C73.1171 165.259 140.82 185.507 194.51 211.882C249.64 238.965 358.981 296.507 358.981 296.507L227.723 265.007Z" fill="#0E0F15"/>
<path d="M281.259 81.0069C281.259 81.0069 376 62.1674 418.399 99.6717C437.83 116.86 447.438 141.381 450.599 169.423C439.217 152.295 422.729 137.3 399.665 126.139C437.872 183.37 443.957 264.328 422.31 318.96C400.663 373.593 357.319 441.74 325.121 474.616C335.883 463.504 440.793 227.401 368.161 161.608C311.384 110.177 251.071 146.577 214.367 168.728C198.428 178.348 189.5 186.007 189.5 186.007C189.5 186.007 191.918 188.052 192.5 188.507C214.159 205.459 254.559 238.031 281.259 287.88C323.239 366.257 310.069 444.831 300.352 502.805C298.426 514.293 296.636 524.972 295.438 534.681C300.466 529.547 306.958 523.307 314.472 516.086C355.073 477.063 425.506 409.369 455.957 332.518C466.724 305.346 474.904 268.737 471.712 232.855C504.225 149.947 527.643 62.4428 488.572 27.8822C435.864 -18.7409 368.161 1.50694 314.472 27.8822C259.342 54.9649 150 112.507 150 112.507L281.259 81.0069Z" fill="#0E0F15"/>
</svg>
